<svg xmlns="http://www.w3.org/2000/svg" viewBox="0 0 580.57 359.81"><defs><style>.cls-1{fill:#b8b8b7;}.cls-2{fill:#e9eae5;}.cls-3{fill:#fff;}</style></defs><g id="Layer_2" data-name="Layer 2"><rect class="cls-1" x="545.33" y="94.56" width="35.25" height="71.94"/><rect class="cls-1" x="527.51" y="110.59" width="28.34" height="34.47"/><rect class="cls-2" x="504.23" y="104.97" width="14.04" height="31.91"/><rect class="cls-2" x="150.34" y="92.71" width="13.02" height="45.7"/><rect class="cls-2" x="60.23" y="104.71" width="12.51" height="31.91"/><rect class="cls-2" x="267.06" y="0.05" width="14.53" height="152.43"/><rect class="cls-2" x="80.4" y="81.71" width="412.85" height="15.91"/><rect class="cls-2" x="339.06" y="88.99" width="13.26" height="47.64"/><rect class="cls-2" y="167.01" width="15.32" height="35.49"/><rect class="cls-2" x="11.11" y="206.84" width="48.53" height="16.68"/><rect class="cls-2" x="76.91" y="215.99" width="66.5" height="33.5"/><rect class="cls-2" x="130.45" y="163.95" width="14.55" height="59.23"/><rect class="cls-2" x="204.36" y="330.8" width="137.75" height="25.46" rx="0.1" transform="translate(69.24 -161.05) rotate(28.78)"/><rect class="cls-2" x="258.78" y="305.55" width="87.06" height="42.14" transform="translate(53.49 -174.19) rotate(27.28)"/><rect class="cls-2" x="134.56" y="269.9" width="13.95" height="23.77" transform="translate(-243.64 24.76) rotate(-27.39)"/><rect class="cls-2" x="182.53" y="286.41" width="39.67" height="15.52" rx="2.67" transform="translate(36.73 -133.04) rotate(28.78)"/><rect class="cls-2" x="197.77" y="267.01" width="15.57" height="48.34"/><rect class="cls-2" x="322.92" y="385.67" width="64.02" height="15.79" transform="translate(103.41 -194.2) rotate(28.78)"/><rect class="cls-2" x="358.44" y="395.41" width="23.55" height="33.31" rx="1.46" transform="translate(100.22 -195.81) rotate(27.28)"/><rect class="cls-2" x="267.06" y="163.95" width="16.06" height="155.66"/><path class="cls-2" d="M191.63,181c-2.21-1.16-1.45-5.74-1.18-7.75a23.22,23.22,0,0,1,3-8.71,23.47,23.47,0,0,1,11.92-9.84,14.47,14.47,0,0,1,5.9-1,7.64,7.64,0,0,1,4.36,1.24,6.72,6.72,0,0,1,1.71,2c1.86,3,4.3,8.68,2.4,10.44l-.22.16c-1.29.94-2.24.92-4.52,1.5a17.06,17.06,0,0,1-2.23.57,13.65,13.65,0,0,1-2.49,0,7.93,7.93,0,0,0-4.6,1.71,8.19,8.19,0,0,0-2.54,3.47,10.22,10.22,0,0,0-.52,1.91c-.67,3.16-.14,4.56-.83,4.91s-1.52-1.19-3.73-1.46C197.44,180,196.21,183.42,191.63,181Z" transform="translate(-129.87 -71.95)"/><rect class="cls-2" x="194.48" y="196.32" width="10.72" height="13.08" transform="translate(-195.07 26.78) rotate(-23.98)"/><rect class="cls-2" x="288.73" y="199.45" width="7.06" height="9.36" transform="translate(-191.07 85.75) rotate(-27.45)"/><path class="cls-2" d="M280.21,194.85c-.13.77-.93,5.21-2.9,8a8.65,8.65,0,0,1-1.67,1.88c-1.51,1.26-2.81,1.43-2.76,1.68s3-.06,8.46-.06h0v-9.87a1.58,1.58,0,0,0-.34-1.15A1.51,1.51,0,0,0,280.21,194.85Z" transform="translate(-129.87 -71.95)"/><path class="cls-2" d="M411.61,386.17c1.43.73,1.41,3.06,1.47,4.45,0,1.06-.05,5.05-3.23,10.85a26.94,26.94,0,0,1-5.45,7.36,25.46,25.46,0,0,1-7.73,4.95c-1.23.5-11.71,4.84-16.1.21A7.29,7.29,0,0,1,379,411.3c-1.93-5.68-.86-13-.86-13,4.49,1.5,9.83,3.53,14.12.41,2.44-1.77,3.58-4.6,4.7-7.28.26-.63,2-6.37,2.76-6.23.16,0,.12.26.35.58.65.89,2.07.18,7.27.58C410.22,386.56,410.82,385.76,411.61,386.17Z" transform="translate(-129.87 -71.95)"/><path class="cls-2" d="M617.51,154.7c.06-.31.52-.46.78-.55a13.18,13.18,0,0,1,3.2-.47l1.79-.06a28.45,28.45,0,0,1,13.2,3.27,26.69,26.69,0,0,1,10.79,14.66,27.46,27.46,0,0,1,.6,3.07c.26,1.76.51,3.48-.06,3.74s-.94-.75-1.83-.67-1.08,1-1.89,1.81c-1.33,1.32-2.5.69-5.29,1.71s-3.49,2.38-4.25,2-.27-1.54-.4-5.42c-.11-3.3-.44-4.15-.79-4.78a6.62,6.62,0,0,0-2.66-2.52,9.44,9.44,0,0,0-4.22-.84c-.68-.05-1.57,0-3.35,0-2.3,0-3.23.06-3.64-.54a1.76,1.76,0,0,1-.09-1.39c1-4.63-1.39-11.89-1.8-12.57A.52.52,0,0,1,617.51,154.7Z" transform="translate(-129.87 -71.95)"/><rect class="cls-1" x="660.67" y="172.08" width="23.97" height="19.03" transform="translate(-78.77 424.46) rotate(-41.97)"/><path class="cls-2" d="M411.63,72c.72,1.41,7.76,15.84.19,27.63-1.74,2.72-6.09,8.16-9,7.18-6.06-2-2-29.89-2.76-33.58,0-.14-.15-.67.08-.82.39-.26,1.58.8,2.74,2" transform="translate(-129.87 -71.95)"/><rect class="cls-2" x="479.22" y="165.26" width="5.3" height="7.86" transform="translate(75.35 -332.05) rotate(37.85)"/><rect class="cls-2" x="466.61" y="199.92" width="5.3" height="7.86" transform="translate(93.96 -317.01) rotate(37.85)"/><rect class="cls-2" x="464.11" y="163" width="10.29" height="7.86" transform="translate(71.31 -324.78) rotate(37.85)"/><rect class="cls-2" x="475.33" y="199.68" width="10.29" height="7.86" transform="translate(310.88 -388.66) rotate(62.67)"/><rect class="cls-2" x="405.33" y="166.41" width="12.28" height="4.72" transform="translate(-92.25 337.71) rotate(-55.1)"/><rect class="cls-2" x="405.01" y="200.72" width="12.28" height="4.72" transform="translate(255.99 589.01) rotate(-113.13)"/><rect class="cls-2" x="406.39" y="151.56" width="9.79" height="5.31" transform="translate(77.78 -306.92) rotate(41.83)"/><path class="cls-2" d="M145.68,225.29a24.5,24.5,0,0,0-5.76.68c.66,6,.47,12,.59,18.05.08,3.61.37,7.21.46,10.82,0,.17,0,.34,0,.51a24.72,24.72,0,0,0,4.7.46c10.8,0,19.56-6.83,19.56-15.26S156.48,225.29,145.68,225.29Z" transform="translate(-129.87 -71.95)"/><rect class="cls-1" y="132.8" width="580.57" height="35.49"/></g><g id="Layer_5" data-name="Layer 5"><rect class="cls-3" x="10.36" y="135.16" width="19.49" height="1.79"/><rect class="cls-3" x="10.43" y="140.01" width="19.49" height="1.79"/><rect class="cls-3" x="10.43" y="145.01" width="19.49" height="1.79"/><rect class="cls-3" x="10.43" y="153.01" width="19.49" height="1.79"/><rect class="cls-3" x="10.43" y="158.01" width="19.49" height="1.79"/><rect class="cls-3" x="10.43" y="163.01" width="19.49" height="1.79"/><rect class="cls-3" x="555.03" y="135.17" width="19.49" height="1.79"/><rect class="cls-3" x="555.1" y="140.02" width="19.49" height="1.79"/><rect class="cls-3" x="555.1" y="145.02" width="19.49" height="1.79"/><rect class="cls-3" x="555.1" y="153.02" width="19.49" height="1.79"/><rect class="cls-3" x="555.1" y="158.02" width="19.49" height="1.79"/><rect class="cls-3" x="555.1" y="163.02" width="19.49" height="1.79"/></g><g id="Layer_6" data-name="Layer 6"><path class="cls-3" d="M164.07,215.55l1.3.93a2.8,2.8,0,0,0-.72,1.73c0,.75.24,1.27.72,1.27s.91-.42.91-2.11h1.44c0,1.37.33,1.87.86,1.87s.7-.36.7-1a2.37,2.37,0,0,0-.63-1.51l1.25-1a4.18,4.18,0,0,1,1,2.64c0,1.75-.77,2.93-2.14,2.93-.74,0-1.29-.5-1.65-1.4H167a1.93,1.93,0,0,1-1.82,1.64c-1.44,0-2.23-1.48-2.23-3.12A3.74,3.74,0,0,1,164.07,215.55Z" transform="translate(-129.87 -71.95)"/><path class="cls-3" d="M167.26,226.28c.52,0,1.28,0,1.8.07v0c-.46-.25-.91-.58-1.37-.85l-1.29-.79v4.41h-1.56v-6.36h1.44l4.46,2.94v2.54h-7.61v-1.91Z" transform="translate(-129.87 -71.95)"/><path class="cls-3" d="M681.92,228.2v-2H678v1.68h-1.27a5.19,5.19,0,0,0-.75-2.23v-1.51h5.95v-1.63h1.66v5.68Z" transform="translate(-129.87 -71.95)"/><path class="cls-3" d="M679.91,221.22c-2.76,0-4.08-1.62-4.08-3.31a3.64,3.64,0,0,1,1-2.54l1.22,1.08a2,2,0,0,0-.53,1.27c0,.87.6,1.63,2.43,1.63s2.28-.71,2.28-1.22a.93.93,0,0,0-1.06-1,.83.83,0,0,0-.91.94,1.57,1.57,0,0,0,.72,1.25l-1.3.09a2.77,2.77,0,0,1-.86-1.8,2.17,2.17,0,0,1,2.35-2.35,2.61,2.61,0,0,1,2.59,2.81C683.72,219.6,682.67,221.22,679.91,221.22Z" transform="translate(-129.87 -71.95)"/></g></svg>