<svg version="1.0" xmlns="http://www.w3.org/2000/svg"
 width="256.000000pt" height="256.000000pt" viewBox="0 0 256.000000 256.000000"
 preserveAspectRatio="xMidYMid meet">

<g transform="translate(0.000000,256.000000) scale(0.100000,-0.100000)"
fill="#000000" stroke="none">
<path d="M1126 2412 c-27 -15 -63 -44 -80 -65 -27 -33 -31 -48 -34 -111 -5
-86 15 -136 73 -184 71 -58 202 -72 289 -32 55 26 111 88 120 132 25 124 -18
219 -119 267 -69 32 -184 29 -249 -7z"/>
<path d="M2292 1975 c2 -5 22 -46 44 -90 157 -313 177 -681 53 -1005 -11 -30
-23 -63 -26 -72 -3 -10 -9 -18 -13 -18 -4 0 -11 -12 -15 -27 -8 -35 -75 -140
-139 -218 -61 -73 -69 -79 -79 -57 -5 11 -6 9 -2 -8 3 -21 -5 -34 -52 -75
-107 -96 -268 -191 -408 -243 -53 -20 -197 -50 -295 -62 -79 -10 -119 -9 -234
4 -134 16 -179 26 -296 68 -70 25 -202 92 -260 132 -97 66 -225 183 -267 243
-8 13 -20 23 -25 23 -27 0 135 -177 227 -248 112 -87 298 -192 340 -192 8 0
16 -4 19 -9 4 -5 25 -12 49 -16 23 -4 47 -11 52 -15 6 -4 64 -16 130 -25 302
-44 639 33 874 199 24 17 57 40 75 52 48 32 171 157 207 211 18 26 36 50 41
53 15 11 78 132 139 268 10 23 19 52 19 63 0 11 5 30 12 42 15 27 37 172 44
293 6 91 -15 288 -38 364 -44 143 -105 277 -153 340 -15 19 -26 31 -23 25z"/>
<path d="M503 1916 c6 -14 20 -37 207 -336 205 -328 230 -368 230 -375 0 -4
-15 -28 -33 -54 -62 -85 -427 -630 -433 -646 -5 -13 24 -15 249 -15 l255 0 21
44 c30 64 41 66 41 7 l0 -51 215 0 c185 0 216 2 222 15 5 14 8 13 19 -4 13
-18 28 -19 269 -20 213 -2 255 0 255 12 0 8 -28 56 -62 108 -94 144 -161 248
-204 317 -21 34 -76 118 -121 187 l-82 126 124 182 c207 303 340 501 343 510
2 4 -106 6 -239 5 l-243 -3 -25 -47 c-14 -26 -28 -45 -31 -42 -3 3 -5 24 -5
47 l0 42 -215 0 -214 0 -7 -25 -6 -25 -13 28 -13 27 -255 0 c-215 0 -253 -2
-249 -14z"/>
<path d="M2225 640 c-3 -5 -1 -10 4 -10 6 0 11 5 11 10 0 6 -2 10 -4 10 -3 0
-8 -4 -11 -10z"/>
<path d="M2040 500 c0 -5 5 -10 11 -10 5 0 7 5 4 10 -3 6 -8 10 -11 10 -2 0
-4 -4 -4 -10z"/>
<path d="M1980 380 c0 -5 5 -10 11 -10 5 0 7 5 4 10 -3 6 -8 10 -11 10 -2 0
-4 -4 -4 -10z"/>
<path d="M1955 340 c3 -5 8 -10 11 -10 2 0 4 5 4 10 0 6 -5 10 -11 10 -5 0 -7
-4 -4 -10z"/>
<path d="M1915 330 c-3 -5 -1 -10 4 -10 6 0 11 5 11 10 0 6 -2 10 -4 10 -3 0
-8 -4 -11 -10z"/>
</g>
</svg>
